<?xml version="1.0" standalone="no"?>
<!DOCTYPE svg PUBLIC "-//W3C//DTD SVG 20010904//EN"
 "http://www.w3.org/TR/2001/REC-SVG-20010904/DTD/svg10.dtd">
<svg version="1.0" xmlns="http://www.w3.org/2000/svg"
 width="700.000000pt" height="700.000000pt" viewBox="0 0 700.000000 700.000000"
 preserveAspectRatio="xMidYMid meet">
<metadata>
Created by potrace 1.14, written by Peter Selinger 2001-2017
</metadata>
<g transform="translate(0.000000,700.000000) scale(0.100000,-0.100000)"
fill="#000000" stroke="none">
<path d="M1177 6148 c-145 -20 -301 -102 -417 -218 -96 -96 -166 -214 -204
-345 -19 -67 -20 -100 -23 -710 -2 -393 -7 -666 -14 -707 -20 -124 -105 -250
-219 -324 -76 -49 -198 -89 -282 -93 -17 -1 -18 -20 -18 -256 0 -199 3 -255
13 -253 24 4 113 -14 178 -37 137 -47 238 -135 297 -255 l37 -75 2 -345 c8
-1014 8 -1042 26 -1105 51 -181 172 -351 323 -452 71 -47 126 -73 219 -103 67
-22 85 -23 473 -24 222 -1 406 1 411 4 4 3 7 148 7 322 0 280 -2 318 -15 322
-9 2 -81 3 -161 2 -80 -1 -170 2 -200 7 -142 21 -231 133 -246 307 -4 47 -8
326 -9 620 -1 294 -5 549 -9 565 -36 138 -74 208 -167 305 -87 89 -189 144
-328 175 -68 16 -95 35 -49 35 45 0 155 33 227 68 116 56 226 177 275 301 48
122 49 146 52 711 2 535 5 636 23 698 27 93 110 180 191 202 27 7 120 13 230
14 l185 1 1 323 c0 177 -2 323 -5 323 -23 5 -767 3 -804 -3z"/>
<path d="M5010 5830 l0 -326 183 -1 c198 -1 218 -3 271 -28 71 -34 141 -129
162 -220 3 -16 8 -275 9 -575 3 -544 6 -634 27 -720 14 -60 79 -184 125 -241
90 -109 237 -188 386 -206 48 -7 43 -26 -9 -34 -163 -24 -314 -118 -411 -254
-115 -162 -114 -158 -118 -865 -1 -322 -6 -598 -9 -615 -13 -58 -54 -130 -96
-172 -67 -66 -110 -76 -332 -76 l-188 -1 0 -326 0 -325 403 1 c347 1 411 3
466 18 301 81 515 317 577 636 4 19 7 330 8 690 2 690 1 678 49 780 28 60 129
158 202 197 67 35 200 75 251 75 l34 0 0 252 0 252 -72 12 c-183 31 -295 102
-390 246 -34 52 -45 81 -65 161 -3 11 -6 308 -8 660 -1 352 -6 656 -9 675 -22
116 -43 171 -112 296 -56 102 -212 237 -336 293 -141 64 -145 64 -590 65
l-408 2 0 -326z"/>
<path d="M1960 4906 c0 -3 37 -103 81 -223 45 -120 92 -245 104 -278 12 -33
62 -166 110 -295 48 -129 100 -269 115 -310 16 -41 112 -300 215 -575 102
-275 216 -579 252 -675 36 -96 93 -251 128 -345 85 -227 95 -285 69 -395 -34
-148 -119 -240 -254 -275 -46 -12 -241 -13 -321 -2 -24 4 -78 9 -119 13 -41 3
-79 7 -85 8 -15 2 -16 -674 -1 -679 6 -2 38 -6 70 -9 243 -23 549 -25 667 -6
41 6 83 13 94 15 158 26 334 114 441 220 135 135 189 242 374 741 78 208 157
422 177 474 50 134 537 1447 737 1985 92 248 181 485 197 527 16 43 29 80 29
83 0 3 -192 4 -427 3 l-426 -3 -42 -130 c-24 -71 -75 -233 -115 -360 -40 -126
-76 -239 -80 -250 -5 -11 -17 -49 -28 -85 -11 -36 -46 -146 -78 -245 -32 -99
-59 -182 -59 -185 0 -3 -8 -27 -17 -55 -9 -27 -49 -151 -88 -275 -125 -392
-151 -470 -158 -470 -4 0 -22 46 -40 103 -18 56 -171 519 -340 1030 l-306 927
-438 0 c-241 0 -438 -2 -438 -4z"/>
</g>
</svg>
